<svg id="visual" viewBox="0 0 960 540" width="960" height="540" xmlns="http://www.w3.org/2000/svg" xmlns:xlink="http://www.w3.org/1999/xlink" version="1.1"><rect x="0" y="0" width="960" height="540" fill="#1d1d1d"></rect><path d="M0 349L26.7 349.5C53.3 350 106.7 351 160 348.5C213.3 346 266.7 340 320 347.2C373.3 354.3 426.7 374.7 480 384.2C533.3 393.7 586.7 392.3 640 384.8C693.3 377.3 746.7 363.7 800 350.8C853.3 338 906.7 326 933.3 320L960 314L960 541L933.3 541C906.7 541 853.3 541 800 541C746.7 541 693.3 541 640 541C586.7 541 533.3 541 480 541C426.7 541 373.3 541 320 541C266.7 541 213.3 541 160 541C106.7 541 53.3 541 26.7 541L0 541Z" fill="#14294a"></path><path d="M0 387L26.7 393.2C53.3 399.3 106.7 411.7 160 406.5C213.3 401.3 266.7 378.7 320 379.8C373.3 381 426.7 406 480 415.3C533.3 424.7 586.7 418.3 640 406.2C693.3 394 746.7 376 800 368.3C853.3 360.7 906.7 363.3 933.3 364.7L960 366L960 541L933.3 541C906.7 541 853.3 541 800 541C746.7 541 693.3 541 640 541C586.7 541 533.3 541 480 541C426.7 541 373.3 541 320 541C266.7 541 213.3 541 160 541C106.7 541 53.3 541 26.7 541L0 541Z" fill="#0a3975"></path><path d="M0 407L26.7 411.5C53.3 416 106.7 425 160 427.8C213.3 430.7 266.7 427.3 320 425.2C373.3 423 426.7 422 480 423.5C533.3 425 586.7 429 640 426C693.3 423 746.7 413 800 410.2C853.3 407.3 906.7 411.7 933.3 413.8L960 416L960 541L933.3 541C906.7 541 853.3 541 800 541C746.7 541 693.3 541 640 541C586.7 541 533.3 541 480 541C426.7 541 373.3 541 320 541C266.7 541 213.3 541 160 541C106.7 541 53.3 541 26.7 541L0 541Z" fill="#0049a2"></path><path d="M0 435L26.7 437.8C53.3 440.7 106.7 446.3 160 452.8C213.3 459.3 266.7 466.7 320 464.7C373.3 462.7 426.7 451.3 480 453C533.3 454.7 586.7 469.3 640 476.3C693.3 483.3 746.7 482.7 800 474.8C853.3 467 906.7 452 933.3 444.5L960 437L960 541L933.3 541C906.7 541 853.3 541 800 541C746.7 541 693.3 541 640 541C586.7 541 533.3 541 480 541C426.7 541 373.3 541 320 541C266.7 541 213.3 541 160 541C106.7 541 53.3 541 26.7 541L0 541Z" fill="#0058d0"></path><path d="M0 478L26.7 479.7C53.3 481.3 106.7 484.7 160 488C213.3 491.3 266.7 494.7 320 493.5C373.3 492.3 426.7 486.7 480 486C533.3 485.3 586.7 489.7 640 490.3C693.3 491 746.7 488 800 486.8C853.3 485.7 906.7 486.3 933.3 486.7L960 487L960 541L933.3 541C906.7 541 853.3 541 800 541C746.7 541 693.3 541 640 541C586.7 541 533.3 541 480 541C426.7 541 373.3 541 320 541C266.7 541 213.3 541 160 541C106.7 541 53.3 541 26.7 541L0 541Z" fill="#0066ff"></path></svg>